# xmcd
#
# Track frame offsets:
#	150
#	12776
#	24533
#	36917
#	51089
#	63876
#	75913
#	89745
#	108646
#	117227
#	125429
#
# Disc length: 1855 seconds
#
# Revision: 0
# Processed by: cddbd v1.5PL3 Copyright (c) Steve Scherf et al.
# Submitted via: audiograbber 1.83.01
#
DISCID=87073d0b
DTITLE=Jonhnny Cash - Johnny Cash's Greatest Hits, Volume 1
DYEAR=1967
DGENRE=Country
TTITLE0=Jackson
TTITLE1=I Walk the Line
TTITLE2=Understand Your Man
TTITLE3=Orange Blossom Special
TTITLE4=The One On the Right Is On the Left
TTITLE5=Ring of Fire
TTITLE6=It Ain't Me Babe
TTITLE7=The Ballad of Ira Hayes
TTITLE8=The Rebel - Johnny Yuma
TTITLE9=Five Feet High and Rising
TTITLE10=Don't Take Your Guns To Town
EXTD=Columbia   CS-9478
EXTT0=With June Carter
EXTT1=
EXTT2=
EXTT3=
EXTT4=
EXTT5=
EXTT6=
EXTT7=
EXTT8=
EXTT9=
EXTT10=
PLAYORDER=
